<?xml version="1.0" standalone="no"?>
<!DOCTYPE svg PUBLIC "-//W3C//DTD SVG 20010904//EN"
 "http://www.w3.org/TR/2001/REC-SVG-20010904/DTD/svg10.dtd">
<svg version="1.0" xmlns="http://www.w3.org/2000/svg"
 width="150.000000pt" height="32.000000pt" viewBox="0 0 150.000000 32.000000"
 preserveAspectRatio="xMidYMid meet">

<g transform="translate(0.000000,32.000000) scale(0.100000,-0.100000)"
fill="#000000" stroke="none">
<path d="M1182 248 c-7 -7 -12 -30 -12 -51 0 -34 2 -38 18 -31 22 10 62 10 85
0 14 -7 17 -3 17 29 0 20 -6 43 -14 51 -18 17 -77 19 -94 2z"/>
<path d="M310 121 c0 -41 4 -71 10 -71 6 0 10 28 10 64 0 36 -4 68 -10 71 -6
4 -10 -20 -10 -64z"/>
<path d="M358 184 c-12 -11 -10 -134 2 -134 6 0 10 15 10 34 0 62 45 55 53 -7
3 -20 4 -15 3 13 -1 41 -3 45 -28 48 -20 2 -28 9 -30 29 -2 14 -6 21 -10 17z"/>
<path d="M150 115 l0 -66 36 3 c41 3 61 26 49 54 -4 11 -8 30 -9 44 -1 21 -6
25 -38 28 l-38 3 0 -66z m58 32 c3 -12 -3 -17 -22 -17 -25 0 -35 18 -19 34 12
12 38 2 41 -17z m17 -57 c0 -10 -12 -16 -32 -18 -28 -3 -33 0 -33 18 0 18 5
21 33 18 20 -2 32 -8 32 -18z"/>
<path d="M260 170 c0 -5 5 -10 10 -10 6 0 10 5 10 10 0 6 -4 10 -10 10 -5 0
-10 -4 -10 -10z"/>
<path d="M732 118 c2 -50 6 -63 21 -66 14 -3 17 4 17 34 0 38 0 38 16 16 l15
-22 19 22 19 23 1 -37 c0 -27 4 -38 15 -38 12 0 15 14 15 65 0 58 -2 65 -20
65 -10 0 -24 -9 -30 -20 -6 -11 -15 -20 -20 -20 -5 0 -12 9 -15 20 -4 13 -15
20 -31 20 -24 0 -25 -2 -22 -62z"/>
<path d="M563 151 c-8 -13 -9 -22 -3 -26 6 -3 10 -22 10 -41 0 -25 4 -34 17
-34 13 0 14 3 5 12 -19 19 -15 66 6 71 15 4 15 5 0 6 -9 0 -18 8 -20 16 -2 13
-5 12 -15 -4z"/>
<path d="M1109 144 c-12 -13 -17 -24 -11 -24 6 0 12 -15 14 -32 3 -35 30 -50
52 -28 8 8 7 14 -6 21 -22 12 -24 39 -3 39 21 0 19 23 -4 37 -16 10 -22 8 -42
-13z"/>
<path d="M1016 148 c-23 -13 -20 -43 7 -57 l22 -12 -22 5 c-15 3 -23 -1 -23
-10 0 -19 24 -28 55 -20 34 9 32 41 -2 61 -24 14 -25 16 -5 12 14 -3 22 0 22
8 0 17 -33 25 -54 13z"/>
<path d="M890 136 c0 -10 6 -13 15 -10 8 4 23 3 33 -2 14 -6 11 -8 -13 -13
-24 -5 -30 -11 -30 -31 0 -23 4 -25 43 -25 l43 0 -3 45 -3 45 -42 3 c-33 2
-43 0 -43 -12z m54 -57 c-3 -5 -10 -7 -15 -3 -5 3 -7 10 -3 15 3 5 10 7 15 3
5 -3 7 -10 3 -15z"/>
<path d="M1192 138 c-32 -32 0 -91 46 -86 33 4 40 25 10 31 l-23 4 23 2 c27 1
39 26 22 46 -15 18 -61 20 -78 3z m48 -18 c0 -5 -7 -10 -16 -10 -8 0 -12 5 -9
10 3 6 10 10 16 10 5 0 9 -4 9 -10z"/>
<path d="M1300 98 c0 -36 4 -48 15 -48 9 0 15 9 15 24 0 13 7 29 15 36 25 20
18 37 -15 36 -29 -1 -30 -3 -30 -48z"/>
<path d="M273 95 c0 -27 2 -38 4 -22 2 15 2 37 0 50 -2 12 -4 0 -4 -28z"/>
<path d="M460 124 c-31 -36 30 -98 63 -65 9 9 5 11 -12 9 -13 -2 -26 3 -28 10
-3 7 3 12 14 12 10 0 24 4 32 9 12 8 12 12 2 25 -17 20 -55 21 -71 0z m55 -3
c3 -5 -4 -13 -16 -16 -23 -8 -34 -1 -24 14 8 13 32 14 40 2z"/>
<path d="M627 134 c-11 -12 -8 -59 5 -72 14 -14 54 -16 63 -3 3 6 -7 9 -21 8
-38 -3 -41 19 -4 27 42 8 38 40 -5 44 -17 2 -34 0 -38 -4z m57 -13 c3 -5 -4
-11 -17 -15 -35 -9 -40 -7 -27 9 14 17 36 20 44 6z"/>
</g>
</svg>
